<svg width="28" height="28" viewBox="0 0 28 28" fill="none" xmlns="http://www.w3.org/2000/svg">
<path d="M14.1039 14L13.9878 25.2449" stroke="black" stroke-linecap="round" stroke-linejoin="round"/>
<path d="M24.0503 19.177V8.82306C24.0503 8.66811 24.0091 8.51594 23.9311 8.3821C23.853 8.24826 23.7407 8.13756 23.6058 8.06132L14.4183 2.86838C14.287 2.79414 14.1387 2.75513 13.9878 2.75513C13.8369 2.75513 13.6886 2.79414 13.5572 2.86838L4.36974 8.06132C4.23485 8.13756 4.12262 8.24826 4.04453 8.3821C3.96644 8.51594 3.92529 8.66811 3.92529 8.82306V19.177C3.92529 19.332 3.96644 19.4841 4.04453 19.618C4.12262 19.7518 4.23485 19.8625 4.36974 19.9387L13.5572 25.1317C13.6886 25.2059 13.8369 25.2449 13.9878 25.2449C14.1387 25.2449 14.287 25.2059 14.4183 25.1317L23.6058 19.9387C23.7407 19.8625 23.853 19.7518 23.9311 19.618C24.0091 19.4841 24.0503 19.332 24.0503 19.177V19.177Z" stroke="black" stroke-linecap="round" stroke-linejoin="round"/>
<path d="M23.9305 8.38109L14.1039 14L4.0459 8.37988" stroke="black" stroke-linecap="round" stroke-linejoin="round"/>
<path d="M19.3616 16.2433V10.9933L9.21387 5.32312" stroke="black" stroke-linecap="round" stroke-linejoin="round"/>
</svg>
