<svg width="28" height="28" viewBox="0 0 28 28" fill="none" xmlns="http://www.w3.org/2000/svg">
<path d="M19.2686 10.9064H24.5186V5.65643" stroke="#FF0100" stroke-linecap="round" stroke-linejoin="round"/>
<path d="M7.19434 7.1941C8.0881 6.30033 9.14915 5.59136 10.3169 5.10766C11.4847 4.62396 12.7363 4.375 14.0002 4.375C15.2642 4.375 16.5158 4.62396 17.6836 5.10766C18.8513 5.59136 19.9124 6.30033 20.8061 7.1941L24.5185 10.9064" stroke="#FF0100" stroke-linecap="round" stroke-linejoin="round"/>
<path d="M8.73145 17.0936H3.48145V22.3436" stroke="#FF0100" stroke-linecap="round" stroke-linejoin="round"/>
<path d="M20.8056 20.8059C19.9118 21.6997 18.8507 22.4086 17.683 22.8923C16.5152 23.376 15.2636 23.625 13.9997 23.625C12.7357 23.625 11.4841 23.376 10.3163 22.8923C9.14857 22.4086 8.08752 21.6997 7.19376 20.8059L3.48145 17.0936" stroke="#FF0100" stroke-linecap="round" stroke-linejoin="round"/>
</svg>
