<svg width="16" height="16" viewBox="0 0 16 16" fill="none" xmlns="http://www.w3.org/2000/svg">
<path d="M1.54912 11.8217C0.617298 10.2509 0.290965 8.3939 0.631402 6.59948C0.971839 4.80507 1.95563 3.19666 3.39803 2.07627C4.84044 0.955873 6.64224 0.400575 8.46509 0.514644C10.2879 0.628714 12.0065 1.4043 13.2979 2.69577C14.5894 3.98725 15.365 5.70576 15.4791 7.52861C15.5932 9.35147 15.0379 11.1533 13.9175 12.5957C12.7971 14.0381 11.1887 15.0219 9.39429 15.3623C7.59988 15.7028 5.74291 15.3765 4.17207 14.4446L1.58173 15.1847C1.47456 15.2153 1.36115 15.2167 1.25325 15.1887C1.14536 15.1608 1.0469 15.1045 0.968086 15.0257C0.889272 14.9468 0.832968 14.8484 0.80501 14.7405C0.777051 14.6326 0.778456 14.5192 0.809077 14.412L1.54912 11.8217Z" stroke="white" stroke-linecap="round" stroke-linejoin="round"/>
</svg>
