<svg width="22" height="22" viewBox="0 0 22 22" fill="none" xmlns="http://www.w3.org/2000/svg">
<path d="M1.60352 1.25H20.3976C20.5671 1.25 20.7329 1.29924 20.875 1.39173C21.017 1.48423 21.1292 1.61599 21.1978 1.77102C21.2663 1.92604 21.2884 2.09764 21.2613 2.26498C21.2342 2.43231 21.159 2.58816 21.045 2.71359L13.8531 10.6247C13.7067 10.7858 13.6255 10.9956 13.6255 11.2133V17.4067C13.6255 17.5508 13.59 17.6926 13.522 17.8196C13.454 17.9466 13.3558 18.0549 13.2359 18.1348L9.7359 20.4681C9.60412 20.5559 9.45097 20.6064 9.29278 20.614C9.13459 20.6217 8.97729 20.5862 8.83766 20.5115C8.69802 20.4368 8.58129 20.3256 8.4999 20.1897C8.41852 20.0538 8.37553 19.8984 8.37553 19.74V11.2133C8.37553 10.9956 8.2944 10.7858 8.14798 10.6247L0.956068 2.71359C0.842041 2.58816 0.766902 2.43231 0.739785 2.26498C0.712667 2.09764 0.734739 1.92604 0.803316 1.77102C0.871894 1.61599 0.984025 1.48423 1.12608 1.39173C1.26814 1.29924 1.434 1.25 1.60352 1.25Z" fill="white" stroke="white" stroke-linecap="round" stroke-linejoin="round"/>
</svg>
