<svg width="28" height="28" viewBox="0 0 28 28" fill="none" xmlns="http://www.w3.org/2000/svg">
<path d="M14.001 23.625C14.001 23.625 3.06348 17.5 3.06348 10.0625C3.0637 8.74797 3.51919 7.47408 4.35251 6.45742C5.18583 5.44076 6.34554 4.74409 7.63446 4.48585C8.92339 4.22761 10.262 4.42375 11.4226 5.04092C12.5833 5.65809 13.4944 6.65818 14.001 7.87118L14.001 7.87119C14.5076 6.65819 15.4187 5.65809 16.5793 5.04092C17.74 4.42376 19.0786 4.22762 20.3675 4.48585C21.6564 4.74409 22.8161 5.44076 23.6494 6.45742C24.4828 7.47407 24.9383 8.74797 24.9385 10.0625C24.9385 17.5 14.001 23.625 14.001 23.625Z" stroke="#FF0100" stroke-linecap="round" stroke-linejoin="round"/>
</svg>
