<svg width="24" height="22" viewBox="0 0 24 22" fill="none" xmlns="http://www.w3.org/2000/svg">
<path d="M12.001 20.625C12.001 20.625 1.06348 14.5 1.06348 7.06251C1.0637 5.74797 1.51919 4.47408 2.35251 3.45742C3.18583 2.44076 4.34554 1.74409 5.63446 1.48585C6.92339 1.22761 8.26197 1.42375 9.42263 2.04092C10.5833 2.65809 11.4944 3.65818 12.001 4.87118L12.001 4.87119C12.5076 3.65819 13.4187 2.65809 14.5793 2.04092C15.74 1.42376 17.0786 1.22762 18.3675 1.48585C19.6564 1.74409 20.8161 2.44076 21.6494 3.45742C22.4828 4.47407 22.9383 5.74797 22.9385 7.06251C22.9385 14.5 12.001 20.625 12.001 20.625Z" fill="#FF0100" stroke="#FF0100" stroke-linecap="round" stroke-linejoin="round"/>
</svg>
