<svg width="10" height="10" viewBox="0 0 10 10" fill="none" xmlns="http://www.w3.org/2000/svg">
<g filter="url(#filter0_ii_624_13339)">
<path d="M4.52447 0.463526C4.67415 0.00287056 5.32585 0.00286996 5.47553 0.463525L6.23483 2.80041C6.30176 3.00642 6.49374 3.1459 6.71036 3.1459H9.1675C9.65186 3.1459 9.85325 3.76571 9.46139 4.05041L7.47352 5.49468C7.29828 5.622 7.22495 5.84768 7.29188 6.0537L8.05118 8.39058C8.20086 8.85123 7.67362 9.23429 7.28176 8.94959L5.29389 7.50532C5.11865 7.378 4.88135 7.378 4.70611 7.50532L2.71824 8.94959C2.32638 9.23429 1.79914 8.85123 1.94882 8.39058L2.70812 6.0537C2.77505 5.84768 2.70172 5.622 2.52648 5.49468L0.538611 4.05041C0.146754 3.76571 0.348141 3.1459 0.832503 3.1459H3.28964C3.50626 3.1459 3.69824 3.00642 3.76517 2.80041L4.52447 0.463526Z" fill="#FF9C00"/>
</g>
<defs>
<filter id="filter0_ii_624_13339" x="-0.167969" y="-0.38208" width="10.3359" height="9.92944" filterUnits="userSpaceOnUse" color-interpolation-filters="sRGB">
<feFlood flood-opacity="0" result="BackgroundImageFix"/>
<feBlend mode="normal" in="SourceGraphic" in2="BackgroundImageFix" result="shape"/>
<feColorMatrix in="SourceAlpha" type="matrix" values="0 0 0 0 0 0 0 0 0 0 0 0 0 0 0 0 0 0 127 0" result="hardAlpha"/>
<feOffset dx="0.5" dy="0.5"/>
<feGaussianBlur stdDeviation="1.5"/>
<feComposite in2="hardAlpha" operator="arithmetic" k2="-1" k3="1"/>
<feColorMatrix type="matrix" values="0 0 0 0 0.996078 0 0 0 0 1 0 0 0 0 0.996078 0 0 0 0.4 0"/>
<feBlend mode="normal" in2="shape" result="effect1_innerShadow_624_13339"/>
<feColorMatrix in="SourceAlpha" type="matrix" values="0 0 0 0 0 0 0 0 0 0 0 0 0 0 0 0 0 0 127 0" result="hardAlpha"/>
<feOffset dx="-0.5" dy="-0.5"/>
<feGaussianBlur stdDeviation="1"/>
<feComposite in2="hardAlpha" operator="arithmetic" k2="-1" k3="1"/>
<feColorMatrix type="matrix" values="0 0 0 0 0 0 0 0 0 0 0 0 0 0 0 0 0 0 0.15 0"/>
<feBlend mode="normal" in2="effect1_innerShadow_624_13339" result="effect2_innerShadow_624_13339"/>
</filter>
</defs>
</svg>
