<svg width="71" height="71" viewBox="0 0 71 71" fill="none" xmlns="http://www.w3.org/2000/svg">
<path d="M62.2147 13.2654C63.4117 17.1723 64.3132 21.6392 64.3132 25.1254C64.3132 31.6469 62.4432 37.9723 58.9063 43.4169C55.4609 48.7208 50.6178 52.9354 44.9009 55.6046C44.4109 55.8338 43.9163 56.0477 43.4186 56.2523C39.5424 62.1746 32.8517 66.0885 25.2447 66.0885C21.3932 66.0885 17.7763 65.0838 14.6401 63.3246C20.4878 67.8008 27.7978 70.4623 35.7309 70.4623C54.9124 70.4623 70.4617 54.9131 70.4617 35.7315C70.4617 27.1631 67.357 19.3215 62.2147 13.2654Z" fill="white" stroke="white" stroke-miterlimit="10"/>
<path d="M25.2438 22.6777C37.2315 22.6777 46.9492 32.3954 46.9492 44.3831C46.9492 47.4023 46.3323 50.2769 45.2185 52.8892C55.4723 47.51 62.0238 36.7685 62.0238 25.1254C62.0238 20.5131 60.2315 13.6738 58.3838 9.40538C52.3023 4.16769 44.3862 1 35.7308 1C16.5492 1 1 16.5492 1 35.7308C1 41.2969 2.31154 46.5561 4.63923 51.2192C3.92615 49.0692 3.53923 46.7715 3.53923 44.3823C3.53923 32.3954 13.2569 22.6777 25.2438 22.6777Z" fill="white" stroke="white" stroke-miterlimit="10"/>
<path d="M43.971 59.616H42.8264C42.8264 41.743 28.2856 27.203 10.4133 27.203V26.0583C28.9172 26.0583 43.971 41.1122 43.971 59.616Z" fill="#F9F6F6" stroke="white" stroke-miterlimit="10"/>
</svg>
